<svg id="visual" viewBox="0 0 1000 1000" width="1000" height="1000" xmlns="http://www.w3.org/2000/svg" xmlns:xlink="http://www.w3.org/1999/xlink" version="1.1"><rect x="0" y="0" width="1000" height="1000" fill="#121212"></rect><defs><linearGradient id="grad1_0" x1="0%" y1="0%" x2="100%" y2="100%"><stop offset="30%" stop-color="#246021" stop-opacity="1"></stop><stop offset="70%" stop-color="#246021" stop-opacity="1"></stop></linearGradient></defs><defs><linearGradient id="grad1_1" x1="0%" y1="0%" x2="100%" y2="100%"><stop offset="30%" stop-color="#246021" stop-opacity="1"></stop><stop offset="70%" stop-color="#235420" stop-opacity="1"></stop></linearGradient></defs><defs><linearGradient id="grad1_2" x1="0%" y1="0%" x2="100%" y2="100%"><stop offset="30%" stop-color="#22481e" stop-opacity="1"></stop><stop offset="70%" stop-color="#235420" stop-opacity="1"></stop></linearGradient></defs><defs><linearGradient id="grad1_3" x1="0%" y1="0%" x2="100%" y2="100%"><stop offset="30%" stop-color="#22481e" stop-opacity="1"></stop><stop offset="70%" stop-color="#203d1c" stop-opacity="1"></stop></linearGradient></defs><defs><linearGradient id="grad1_4" x1="0%" y1="0%" x2="100%" y2="100%"><stop offset="30%" stop-color="#1d321a" stop-opacity="1"></stop><stop offset="70%" stop-color="#203d1c" stop-opacity="1"></stop></linearGradient></defs><defs><linearGradient id="grad1_5" x1="0%" y1="0%" x2="100%" y2="100%"><stop offset="30%" stop-color="#1d321a" stop-opacity="1"></stop><stop offset="70%" stop-color="#1a2718" stop-opacity="1"></stop></linearGradient></defs><defs><linearGradient id="grad1_6" x1="0%" y1="0%" x2="100%" y2="100%"><stop offset="30%" stop-color="#171d15" stop-opacity="1"></stop><stop offset="70%" stop-color="#1a2718" stop-opacity="1"></stop></linearGradient></defs><defs><linearGradient id="grad1_7" x1="0%" y1="0%" x2="100%" y2="100%"><stop offset="30%" stop-color="#171d15" stop-opacity="1"></stop><stop offset="70%" stop-color="#121212" stop-opacity="1"></stop></linearGradient></defs><defs><linearGradient id="grad2_0" x1="0%" y1="0%" x2="100%" y2="100%"><stop offset="30%" stop-color="#246021" stop-opacity="1"></stop><stop offset="70%" stop-color="#246021" stop-opacity="1"></stop></linearGradient></defs><defs><linearGradient id="grad2_1" x1="0%" y1="0%" x2="100%" y2="100%"><stop offset="30%" stop-color="#235420" stop-opacity="1"></stop><stop offset="70%" stop-color="#246021" stop-opacity="1"></stop></linearGradient></defs><defs><linearGradient id="grad2_2" x1="0%" y1="0%" x2="100%" y2="100%"><stop offset="30%" stop-color="#235420" stop-opacity="1"></stop><stop offset="70%" stop-color="#22481e" stop-opacity="1"></stop></linearGradient></defs><defs><linearGradient id="grad2_3" x1="0%" y1="0%" x2="100%" y2="100%"><stop offset="30%" stop-color="#203d1c" stop-opacity="1"></stop><stop offset="70%" stop-color="#22481e" stop-opacity="1"></stop></linearGradient></defs><defs><linearGradient id="grad2_4" x1="0%" y1="0%" x2="100%" y2="100%"><stop offset="30%" stop-color="#203d1c" stop-opacity="1"></stop><stop offset="70%" stop-color="#1d321a" stop-opacity="1"></stop></linearGradient></defs><defs><linearGradient id="grad2_5" x1="0%" y1="0%" x2="100%" y2="100%"><stop offset="30%" stop-color="#1a2718" stop-opacity="1"></stop><stop offset="70%" stop-color="#1d321a" stop-opacity="1"></stop></linearGradient></defs><defs><linearGradient id="grad2_6" x1="0%" y1="0%" x2="100%" y2="100%"><stop offset="30%" stop-color="#1a2718" stop-opacity="1"></stop><stop offset="70%" stop-color="#171d15" stop-opacity="1"></stop></linearGradient></defs><defs><linearGradient id="grad2_7" x1="0%" y1="0%" x2="100%" y2="100%"><stop offset="30%" stop-color="#121212" stop-opacity="1"></stop><stop offset="70%" stop-color="#171d15" stop-opacity="1"></stop></linearGradient></defs><g transform="translate(1000, 0)"><path d="M0 634C-53.7 587 -107.3 540.1 -169.3 521.2C-231.3 502.3 -301.7 511.5 -353.3 486.2C-404.8 460.9 -437.7 401.1 -480.6 349.1C-523.4 297.2 -576.3 253.1 -603.9 196.2C-631.6 139.3 -634 69.7 -636.4 0L0 0Z" fill="#151814"></path><path d="M0 554.8C-47 513.6 -93.9 472.5 -148.2 456C-202.4 439.5 -264 447.6 -309.1 425.4C-354.2 403.3 -383 351 -420.5 305.5C-458 260 -504.2 221.5 -528.4 171.7C-552.6 121.9 -554.7 61 -556.8 0L0 0Z" fill="#182217"></path><path d="M0 475.5C-40.3 440.3 -80.5 405 -127 390.9C-173.5 376.7 -226.3 383.6 -264.9 364.7C-303.6 345.7 -328.3 300.8 -360.4 261.9C-392.6 222.9 -432.2 189.8 -452.9 147.2C-473.7 104.5 -475.5 52.3 -477.3 0L0 0Z" fill="#1c2c19"></path><path d="M0 396.3C-33.5 366.9 -67.1 337.5 -105.8 325.7C-144.6 313.9 -188.5 319.7 -220.8 303.9C-253 288.1 -273.6 250.7 -300.3 218.2C-327.1 185.7 -360.2 158.2 -377.5 122.6C-394.7 87.1 -396.2 43.5 -397.7 0L0 0Z" fill="#1f371b"></path><path d="M0 317C-26.8 293.5 -53.7 270 -84.7 260.6C-115.7 251.2 -150.8 255.8 -176.6 243.1C-202.4 230.5 -218.8 200.5 -240.3 174.6C-261.7 148.6 -288.1 126.6 -302 98.1C-315.8 69.7 -317 34.8 -318.2 0L0 0Z" fill="#21431d"></path><path d="M0 237.8C-20.1 220.1 -40.3 202.5 -63.5 195.4C-86.8 188.4 -113.1 191.8 -132.5 182.3C-151.8 172.8 -164.1 150.4 -180.2 130.9C-196.3 111.4 -216.1 94.9 -226.5 73.6C-236.8 52.3 -237.7 26.1 -238.6 0L0 0Z" fill="#224e1f"></path><path d="M0 158.5C-13.4 146.8 -26.8 135 -42.3 130.3C-57.8 125.6 -75.4 127.9 -88.3 121.6C-101.2 115.2 -109.4 100.3 -120.1 87.3C-130.9 74.3 -144.1 63.3 -151 49.1C-157.9 34.8 -158.5 17.4 -159.1 0L0 0Z" fill="#245a20"></path><path d="M0 79.3C-6.7 73.4 -13.4 67.5 -21.2 65.1C-28.9 62.8 -37.7 63.9 -44.2 60.8C-50.6 57.6 -54.7 50.1 -60.1 43.6C-65.4 37.1 -72 31.6 -75.5 24.5C-78.9 17.4 -79.2 8.7 -79.5 0L0 0Z" fill="#246021"></path></g><g transform="translate(0, 1000)"><path d="M0 -619C69.9 -621.3 139.8 -623.6 190 -584.9C240.3 -546.2 270.9 -466.7 299.8 -412.6C328.6 -358.5 355.8 -330 415.8 -302.1C475.9 -274.2 568.7 -246.9 605.2 -196.7C641.8 -146.4 621.9 -73.2 602 0L0 0Z" fill="#151814"></path><path d="M0 -541.6C61.2 -543.6 122.3 -545.6 166.3 -511.8C210.3 -478 237 -408.3 262.3 -361C287.6 -313.7 311.3 -288.8 363.9 -264.4C416.4 -239.9 497.7 -216 529.6 -172.1C561.5 -128.1 544.1 -64.1 526.8 0L0 0Z" fill="#182217"></path><path d="M0 -464.2C52.4 -466 104.8 -467.7 142.5 -438.7C180.2 -409.7 203.2 -350 224.8 -309.4C246.5 -268.9 266.9 -247.5 311.9 -226.6C356.9 -205.7 426.6 -185.2 453.9 -147.5C481.3 -109.8 466.4 -54.9 451.5 0L0 0Z" fill="#1c2c19"></path><path d="M0 -386.9C43.7 -388.3 87.4 -389.7 118.8 -365.6C150.2 -341.4 169.3 -291.7 187.4 -257.9C205.4 -224.1 222.4 -206.3 259.9 -188.8C297.4 -171.4 355.5 -154.3 378.3 -122.9C401.1 -91.5 388.7 -45.8 376.3 0L0 0Z" fill="#1f371b"></path><path d="M0 -309.5C34.9 -310.6 69.9 -311.8 95 -292.4C120.1 -273.1 135.4 -233.3 149.9 -206.3C164.3 -179.3 177.9 -165 207.9 -151.1C237.9 -137.1 284.4 -123.5 302.6 -98.3C320.9 -73.2 310.9 -36.6 301 0L0 0Z" fill="#21431d"></path><path d="M0 -232.1C26.2 -233 52.4 -233.8 71.3 -219.3C90.1 -204.8 101.6 -175 112.4 -154.7C123.2 -134.5 133.4 -123.8 155.9 -113.3C178.4 -102.8 213.3 -92.6 227 -73.7C240.7 -54.9 233.2 -27.5 225.8 0L0 0Z" fill="#224e1f"></path><path d="M0 -154.7C17.5 -155.3 34.9 -155.9 47.5 -146.2C60.1 -136.6 67.7 -116.7 74.9 -103.1C82.2 -89.6 89 -82.5 104 -75.5C119 -68.6 142.2 -61.7 151.3 -49.2C160.4 -36.6 155.5 -18.3 150.5 0L0 0Z" fill="#245a20"></path><path d="M0 -77.4C8.7 -77.7 17.5 -77.9 23.8 -73.1C30 -68.3 33.9 -58.3 37.5 -51.6C41.1 -44.8 44.5 -41.3 52 -37.8C59.5 -34.3 71.1 -30.9 75.7 -24.6C80.2 -18.3 77.7 -9.2 75.3 0L0 0Z" fill="#246021"></path></g></svg>